<?xml version="1.0" encoding="utf-8"?>
<!-- Uploaded to: SVG Repo, www.svgrepo.com, Generator: SVG Repo Mixer Tools -->
<svg width="800px" height="800px" viewBox="0 0 1024 1024" class="icon"  version="1.1" xmlns="http://www.w3.org/2000/svg"><path d="M281.026 340.15c52.252 15.068 92.39 13.448 118.624 9.638 49.901-7.266 70.091-25.618 119.137-31.766 46.982-5.886 86.492 3.673 110.97 11.76-59.312-2.11-93.006 4.46-113.16 11.407-29.699 11.116-64.013 17.839-99.808 18.488l16.829-0.775c-35.45 2.566-87.349 1.187-152.591-18.752z" fill="#C40000" /><path d="M356.307 350.414c0 18.898 15.321 34.219 34.219 34.219s34.219-15.321 34.219-34.219c0-18.898-15.321-34.219-34.219-34.219-18.898 0-34.219 15.321-34.219 34.219z" fill="#FA1919" /><path d="M495.712 445.6l-25.789-22.481 253.775-291.164 143.524-69.954 14.988 30.762-137.285 66.908-249.212 285.928z" fill="#FADC4A" /><path d="M516.563 341.245c-29.699 11.116-64.013 17.839-99.809 18.488l16.829-0.775c-35.416 2.51-87.314 1.141-152.558-18.809l137.843 140.512c8.286 8.441 19.816 13.673 32.568 13.673 12.88 0 24.515-5.337 32.811-13.922l145.475-150.63c-59.323-2.11-93.006 4.448-113.16 11.464z" fill="#FA1919" /><path d="M451.434 517.104c-0.059 0-0.128 0-0.198 0-19.067 0-36.298-7.86-48.629-20.516l-254.29-259.138c-4.032-4.112-6.52-9.75-6.52-15.968 0-12.597 10.211-22.81 22.808-22.812h68.322c12.597 0.003 22.808 10.215 22.808 22.812s-10.211 22.809-22.808 22.812h-13.985l216.215 220.343c4.143 4.221 9.907 6.836 16.283 6.836 6.437 0 12.252-2.666 16.4-6.955l212.731-220.282h-304.544c0 0 0 0 0 0-12.599 0-22.812-10.214-22.812-22.812 0-12.599 10.214-22.812 22.812-22.812 0 0 0 0 0 0h358.289c0 0 0 0 0 0 12.599 0 22.812 10.214 22.812 22.812 0 6.157-2.44 11.746-6.406 15.849l-250.050 258.912c-12.373 12.895-29.747 20.91-48.992 20.918z" fill="#000000" /><path d="M307.545 244.293h-6.376c-12.597-0.003-22.808-10.215-22.808-22.812s10.211-22.809 22.808-22.812h6.377c12.597 0.003 22.808 10.215 22.808 22.812s-10.211 22.809-22.808 22.812zM444.054 962q-4.733 0-9.034-0.172c-12.547-0.479-45.967-1.768-54.578-26.941-2.179-6.353-4.095-19.026 7.493-32.564 4.425-5.167 9.946-9.615 16.334-14.771 11.407-9.125 24.249-19.562 32.713-35.36 13.516-25.241 7.642-49.605-4.814-94.032-8.304-29.656-17.702-63.156-21.227-105.552-4.312-51.795 1.609-105.518 17.577-159.686 2.878-9.535 11.583-16.359 21.883-16.359 12.6 0 22.816 10.215 22.816 22.816 0 2.301-0.341 4.523-0.975 6.617-14.33 48.565-19.668 96.665-15.835 142.814 3.171 38.062 11.943 69.383 19.698 97.021 12.833 45.761 23.953 85.283 1.141 127.885-10.266 19.174-24.443 32.782-36.112 42.636 11.554 0.137 28.755-0.662 54.145-3.627 0.795-0.098 1.714-0.154 2.647-0.154 12.599 0 22.812 10.214 22.812 22.812 0 11.666-8.757 21.287-20.058 22.647-22.773 2.668-41.365 3.968-56.626 3.968z" fill="#000000" /></svg>